<svg version="1.2" xmlns="http://www.w3.org/2000/svg" viewBox="0 0 100 40" width="100" height="40">
    <style>
        .s0 { fill: #ed6789 }
    </style>
    <path id="StomaSoft" class="s0" aria-label="StomaSoft"  d="m11 8.8v1.8q-1-0.5-1.9-0.8-1-0.2-1.9-0.2-1.5 0-2.3 0.6-0.8 0.5-0.8 1.6 0 0.9 0.5 1.4 0.6 0.5 2.1 0.7l1.1 0.3q2.1 0.4 3.1 1.4 1 1 1 2.6 0 2-1.4 3-1.3 1.1-3.9 1.1-0.9 0-2-0.3-1.1-0.2-2.3-0.6v-1.9q1.1 0.6 2.2 0.9 1.1 0.4 2.1 0.4 1.6 0 2.5-0.7 0.8-0.6 0.8-1.7 0-1-0.6-1.6-0.6-0.6-2-0.9l-1.1-0.2q-2.1-0.4-3-1.3-1-0.9-1-2.4 0-1.8 1.3-2.9 1.3-1 3.5-1 1 0 2 0.1 1 0.2 2 0.6zm3.7 0h1.7v2.9h3.5v1.3h-3.5v5.6q0 1.3 0.4 1.6 0.3 0.4 1.4 0.4h1.7v1.4h-1.7q-2 0-2.7-0.7-0.8-0.8-0.8-2.7v-5.6h-1.2v-1.3h1.2zm11 4.1q-1.3 0-2.1 1.1-0.8 1.1-0.8 2.9 0 1.8 0.8 2.9 0.8 1.1 2.1 1.1 1.4 0 2.2-1.1 0.8-1.1 0.8-2.9 0-1.8-0.8-2.9-0.8-1.1-2.2-1.1zm0-1.4q2.2 0 3.5 1.4 1.3 1.5 1.3 4 0 2.5-1.3 4-1.3 1.4-3.5 1.4-2.2 0-3.4-1.4-1.3-1.5-1.3-4 0-2.5 1.3-4 1.2-1.4 3.4-1.4zm16.1 2.2q0.6-1.1 1.5-1.7 0.8-0.5 2-0.5 1.6 0 2.5 1.1 0.9 1.1 0.9 3.2v6.2h-1.7v-6.1q0-1.5-0.5-2.2-0.6-0.7-1.6-0.7-1.3 0-2.1 0.8-0.8 0.9-0.8 2.4v5.8h-1.7v-6.1q0-1.5-0.5-2.2-0.5-0.7-1.6-0.7-1.3 0-2 0.8-0.8 0.9-0.8 2.4v5.8h-1.7v-10.2h1.7v1.5q0.6-0.9 1.4-1.3 0.8-0.5 1.9-0.5 1.1 0 1.9 0.6 0.8 0.5 1.2 1.6zm16.3 3.2h-1.7q-2 0-2.8 0.4-0.8 0.5-0.8 1.6 0 0.9 0.6 1.4 0.6 0.6 1.6 0.6 1.4 0 2.3-1 0.8-1 0.8-2.7zm1.7-0.7v5.9h-1.7v-1.6q-0.6 1-1.4 1.4-0.9 0.5-2.1 0.5-1.6 0-2.5-0.9-1-0.9-1-2.4 0-1.7 1.2-2.6 1.1-0.9 3.4-0.9h2.4v-0.2q0-1.1-0.8-1.7-0.7-0.7-2.1-0.7-0.9 0-1.7 0.2-0.9 0.2-1.6 0.7v-1.6q0.9-0.4 1.8-0.5 0.8-0.2 1.7-0.2 2.2 0 3.3 1.1 1.1 1.2 1.1 3.5zm12.2-7.3v1.8q-1-0.5-1.9-0.8-1-0.2-1.9-0.2-1.5 0-2.3 0.6-0.8 0.5-0.8 1.6 0 0.9 0.5 1.4 0.6 0.5 2.1 0.7l1.1 0.3q2.1 0.4 3.1 1.4 1 0.9 1 2.6 0 2-1.4 3-1.3 1.1-3.9 1.1-0.9 0-2-0.3-1.1-0.2-2.3-0.6v-1.9q1.1 0.6 2.2 0.9 1.1 0.4 2.1 0.4 1.6 0 2.5-0.7 0.8-0.6 0.8-1.7 0-1.1-0.6-1.6-0.6-0.6-2-0.9l-1.1-0.2q-2.1-0.4-3-1.3-1-0.9-1-2.4 0-1.8 1.3-2.9 1.3-1 3.5-1 1 0 2 0.1 1 0.2 2 0.6zm7.7 4.1q-1.3 0-2.1 1.1-0.8 1-0.8 2.9 0 1.8 0.8 2.9 0.8 1 2.1 1 1.4 0 2.2-1 0.8-1.1 0.8-2.9 0-1.9-0.8-2.9-0.8-1.1-2.2-1.1zm0-1.4q2.2 0 3.5 1.4 1.3 1.4 1.3 4 0 2.5-1.3 3.9-1.3 1.5-3.5 1.5-2.2 0-3.4-1.5-1.3-1.4-1.3-3.9 0-2.6 1.3-4 1.2-1.4 3.4-1.4zm10.7-3.8h1.6v1.4h-1.6q-1 0-1.3 0.4-0.4 0.4-0.4 1.3v0.9h2.8v1.3h-2.8v9h-1.7v-9h-1.6v-1.3h1.6v-0.7q0-1.7 0.8-2.5 0.8-0.8 2.6-0.8zm2.3 1.1h1.7v2.9h3.5v1.3h-3.5v5.6q0 1.3 0.4 1.6 0.3 0.4 1.4 0.4h1.7v1.4h-1.7q-2 0-2.7-0.7-0.8-0.8-0.8-2.7v-5.6h-1.2v-1.3h1.2z"/>
    <path id="DENTAL APP" class="s0" aria-label="DENTAL APP"  d="m23 27.8h-1.1v5.4h1.1q1.5 0 2.1-0.6 0.7-0.7 0.7-2.1 0-1.4-0.7-2-0.6-0.7-2.1-0.7zm-2.1 6.2v-7h2q2 0 2.9 0.9 1 0.8 1 2.6 0 1.8-1 2.7-0.9 0.8-2.9 0.8zm8 0v-7h4.4v0.8h-3.5v2.1h3.3v0.8h-3.3v2.5h3.5v0.8zm6 0v-7h1.3l3.1 5.9v-5.9h0.9v7h-1.3l-3-5.8v5.8zm6-6.2v-0.8h5.9v0.8h-2.5v6.2h-0.9v-6.2zm9.5 3.6l-1.3-3.4-1.2 3.4zm-4.5 2.6l2.7-7h1l2.7 7h-1l-0.6-1.8h-3.2l-0.6 1.8zm7.9 0v-7h0.9v6.2h3.4v0.8zm11.6-2.6l-1.3-3.4-1.3 3.4zm-4.4 2.6l2.6-7h1.1l2.6 7h-0.9l-0.7-1.8h-3.1l-0.6 1.8zm8.9-6.2h-1.1v2.6h1.1q0.7 0 1.1-0.3 0.3-0.3 0.3-1 0-0.6-0.3-0.9-0.4-0.4-1.1-0.4zm-2.1 6.2v-7h2.1q1.2 0 1.8 0.6 0.6 0.5 0.6 1.5 0 1.1-0.6 1.6-0.6 0.5-1.8 0.5h-1.1v2.8zm8.1-6.2h-1.2v2.6h1.2q0.6 0 1-0.3 0.4-0.3 0.4-1 0-0.6-0.4-0.9-0.4-0.4-1-0.4zm-2.1 6.2v-7h2.1q1.2 0 1.7 0.6 0.6 0.5 0.6 1.5 0 1.1-0.6 1.6-0.5 0.5-1.7 0.5h-1.2v2.8z"/>
</svg>
