<svg width="422" height="367" viewBox="0 0 422 367" fill="none" xmlns="http://www.w3.org/2000/svg">
<path d="M122 180C121.292 160.016 119.911 150.172 115 136C122.749 145.31 126.854 151.435 131.5 172.5C134.271 188.63 136.196 197.379 141.5 211.5C149.058 223.589 153.048 228.373 159 227.5C163.865 227.647 166.819 223.443 172.5 208C178.066 195.197 182.502 189.886 194 185.5C202.944 184.381 206.858 185.094 212.5 188C198.647 188.557 192.897 193.052 185.5 207C180.549 219.689 178.96 228.651 177 246C174.007 257.991 170.607 262.002 160 262C149.185 259.02 144.362 255.832 139 247C131.884 236.395 128.944 229.595 125.5 216C123.216 203.215 122.501 195.261 122 180Z" fill="url(#paint0_linear_1_113)"/>
<path d="M190.504 9.10941C204.948 15.8404 213.048 18.297 227.504 15.1094C215.899 23.0207 209.261 26.908 197.004 32.1094C191.169 31.6057 187.88 30.6669 182.004 28.6094C174.772 26.6265 170.722 25.977 163.504 25.6094C147.225 25.8708 140.085 30.4656 130.004 44.6094C123.879 60.3379 125.227 69.2085 136.004 85.1094C146.336 97.6493 156.208 105.28 185.504 120.609C214.17 133.583 229.824 140.816 251.504 153.109C271.311 164.802 279.966 173.091 288.004 193.109C293.56 215.197 290.271 226.979 275.004 247.109C256.695 261.951 246.407 265.282 228.004 260.109C239.293 251.722 243.81 246.832 247.004 237.609C251.175 221.211 248.867 212.564 236.504 198.109C223.201 186.969 213.616 181.443 193.504 172.609C174.092 164.298 163.562 159.044 146.004 147.609C126.6 132.768 119.245 124.062 110.004 108.109C101.752 91.5867 98.8803 81.4243 99.0038 60.6094C101.061 40.6669 104.401 31.2512 115.504 18.6094C125.994 8.06389 132.783 3.29628 149.504 0.609411C164.148 -1.35437 173.36 1.41464 190.504 9.10941Z" fill="url(#paint1_linear_1_113)"/>
<path d="M248.5 65C259.127 68.2177 265.039 71.269 275.5 79L264 77C252.426 75.3055 245.367 75.1617 232 76C221.805 76.9588 217.333 78.422 212 83C208.45 87.284 208.599 89.9152 212.5 95C216.735 99.0051 219.772 101.302 226.5 105.5L252.5 120C264.956 126.701 271.226 131.16 281 140.5C288.374 147.852 291.247 153.095 293.5 165C294.197 177.41 293.573 182.819 291.5 191C288.917 178.981 286.443 173.36 280.5 165C275.139 158.353 271.67 154.834 264.5 149C256.362 143.06 251.467 139.972 242 135L220.5 124L194 110.5C182.291 104.277 177.224 100.427 170.5 93C166.974 87.6251 165.979 84.5622 166 79C166.609 73.2587 167.849 70.2771 174 66C182.406 61.3673 188.205 59.6543 201.5 59H219.5L224 59.5C231.741 60.4652 236.864 61.5138 248.5 65Z" fill="url(#paint2_linear_1_113)"/>
<path d="M210 86.5C212.123 68.0696 228.655 68.7791 268.5 77.5C236.805 74.8621 219.205 73.502 210 86.5Z" fill="#73BADE"/>
<path d="M291.5 157C288.635 146.848 281.771 140.542 267 129C282.878 149.439 289.36 160.755 293.5 180.5C294.126 169.53 293.871 164.152 291.5 157Z" fill="#3398EB"/>
<path d="M223 15.5C210.12 24.3693 204.141 30.8692 187 34.5C197.5 36.5214 203.593 36.5113 215 33.5C227.379 28.5076 234.308 25.6624 247 22C260.355 18.9019 267.711 18.754 280.5 22.5C292.972 28.2409 297.655 33.3186 301.5 46C303.269 57.3147 303.122 65.2087 300.5 82.5L292 115C296.733 105.187 299.293 99.6129 303 89C307.984 73.6993 309.737 65.1507 309.5 50C308.658 34.0699 305.232 26.5312 294 15.5C282.224 6.65649 274.478 3.97663 258 4.5C245.01 5.94876 237.414 8.07697 223 15.5Z" fill="url(#paint3_linear_1_113)"/>
<path d="M24.101 337.924C19.789 337.924 15.6567 337.359 11.704 336.23C7.75133 335.049 4.56867 333.535 2.156 331.687L6.391 322.293C8.701 323.936 11.4217 325.296 14.553 326.374C17.7357 327.401 20.944 327.914 24.178 327.914C26.642 327.914 28.6183 327.683 30.107 327.221C31.647 326.708 32.7763 326.015 33.495 325.142C34.2137 324.269 34.573 323.268 34.573 322.139C34.573 320.702 34.0083 319.572 32.879 318.751C31.7497 317.878 30.261 317.185 28.413 316.672C26.565 316.107 24.5117 315.594 22.253 315.132C20.0457 314.619 17.8127 314.003 15.554 313.284C13.3467 312.565 11.319 311.641 9.471 310.512C7.623 309.383 6.10867 307.894 4.928 306.046C3.79867 304.198 3.234 301.837 3.234 298.962C3.234 295.882 4.05533 293.084 5.698 290.569C7.392 288.002 9.90733 285.975 13.244 284.486C16.632 282.946 20.867 282.176 25.949 282.176C29.337 282.176 32.6737 282.587 35.959 283.408C39.2443 284.178 42.1447 285.359 44.66 286.95L40.81 296.421C38.2947 294.984 35.7793 293.931 33.264 293.264C30.7487 292.545 28.2847 292.186 25.872 292.186C23.4593 292.186 21.483 292.468 19.943 293.033C18.403 293.598 17.2993 294.342 16.632 295.266C15.9647 296.139 15.631 297.165 15.631 298.346C15.631 299.732 16.1957 300.861 17.325 301.734C18.4543 302.555 19.943 303.223 21.791 303.736C23.639 304.249 25.6667 304.763 27.874 305.276C30.1327 305.789 32.3657 306.38 34.573 307.047C36.8317 307.714 38.885 308.613 40.733 309.742C42.581 310.871 44.0697 312.36 45.199 314.208C46.3797 316.056 46.97 318.392 46.97 321.215C46.97 324.244 46.123 327.016 44.429 329.531C42.735 332.046 40.194 334.074 36.806 335.614C33.4693 337.154 29.2343 337.924 24.101 337.924Z" fill="black"/>
<path d="M71.5865 337.616C66.7099 337.616 62.9112 336.384 60.1905 333.92C57.4699 331.405 56.1095 327.683 56.1095 322.755V286.411H68.1215V322.601C68.1215 324.346 68.5835 325.707 69.5075 326.682C70.4315 327.606 71.6892 328.068 73.2805 328.068C75.1799 328.068 76.7969 327.555 78.1315 326.528L81.3655 334.998C80.1335 335.871 78.6449 336.538 76.8995 337C75.2055 337.411 73.4345 337.616 71.5865 337.616ZM49.7185 304.814V295.574H78.4395V304.814H49.7185Z" fill="black"/>
<path d="M106.542 337.616C102.127 337.616 98.2005 336.692 94.7611 334.844C91.3731 332.996 88.6781 330.481 86.6761 327.298C84.7255 324.064 83.7501 320.394 83.7501 316.287C83.7501 312.129 84.7255 308.459 86.6761 305.276C88.6781 302.042 91.3731 299.527 94.7611 297.73C98.2005 295.882 102.127 294.958 106.542 294.958C110.905 294.958 114.807 295.882 118.246 297.73C121.685 299.527 124.38 302.016 126.331 305.199C128.282 308.382 129.257 312.078 129.257 316.287C129.257 320.394 128.282 324.064 126.331 327.298C124.38 330.481 121.685 332.996 118.246 334.844C114.807 336.692 110.905 337.616 106.542 337.616ZM106.542 327.76C108.544 327.76 110.341 327.298 111.932 326.374C113.523 325.45 114.781 324.141 115.705 322.447C116.629 320.702 117.091 318.648 117.091 316.287C117.091 313.874 116.629 311.821 115.705 310.127C114.781 308.433 113.523 307.124 111.932 306.2C110.341 305.276 108.544 304.814 106.542 304.814C104.54 304.814 102.743 305.276 101.152 306.2C99.5608 307.124 98.2775 308.433 97.3021 310.127C96.3781 311.821 95.9161 313.874 95.9161 316.287C95.9161 318.648 96.3781 320.702 97.3021 322.447C98.2775 324.141 99.5608 325.45 101.152 326.374C102.743 327.298 104.54 327.76 106.542 327.76Z" fill="black"/>
<path d="M137.286 337V295.574H148.759V306.893L146.603 303.582C148.041 300.759 150.068 298.628 152.686 297.191C155.356 295.702 158.384 294.958 161.772 294.958C165.571 294.958 168.882 295.933 171.705 297.884C174.58 299.783 176.479 302.709 177.403 306.662L173.168 305.507C174.554 302.273 176.762 299.706 179.79 297.807C182.87 295.908 186.387 294.958 190.339 294.958C193.625 294.958 196.525 295.625 199.04 296.96C201.607 298.243 203.609 300.245 205.046 302.966C206.535 305.635 207.279 309.075 207.279 313.284V337H195.267V315.132C195.267 311.795 194.574 309.331 193.188 307.74C191.802 306.149 189.852 305.353 187.336 305.353C185.591 305.353 184.025 305.764 182.639 306.585C181.253 307.355 180.175 308.536 179.405 310.127C178.635 311.718 178.25 313.746 178.25 316.21V337H166.238V315.132C166.238 311.795 165.545 309.331 164.159 307.74C162.825 306.149 160.9 305.353 158.384 305.353C156.639 305.353 155.073 305.764 153.687 306.585C152.301 307.355 151.223 308.536 150.453 310.127C149.683 311.718 149.298 313.746 149.298 316.21V337H137.286Z" fill="black"/>
<path d="M243.456 337V328.915L242.686 327.144V312.668C242.686 310.101 241.89 308.099 240.299 306.662C238.759 305.225 236.372 304.506 233.138 304.506C230.931 304.506 228.749 304.865 226.593 305.584C224.488 306.251 222.692 307.175 221.203 308.356L216.891 299.963C219.15 298.372 221.87 297.14 225.053 296.267C228.236 295.394 231.47 294.958 234.755 294.958C241.069 294.958 245.971 296.447 249.462 299.424C252.953 302.401 254.698 307.047 254.698 313.361V337H243.456ZM230.828 337.616C227.594 337.616 224.822 337.077 222.512 335.999C220.202 334.87 218.431 333.355 217.199 331.456C215.967 329.557 215.351 327.426 215.351 325.065C215.351 322.601 215.941 320.445 217.122 318.597C218.354 316.749 220.279 315.312 222.897 314.285C225.515 313.207 228.929 312.668 233.138 312.668H244.149V319.675H234.447C231.624 319.675 229.673 320.137 228.595 321.061C227.568 321.985 227.055 323.14 227.055 324.526C227.055 326.066 227.645 327.298 228.826 328.222C230.058 329.095 231.726 329.531 233.831 329.531C235.833 329.531 237.63 329.069 239.221 328.145C240.812 327.17 241.967 325.758 242.686 323.91L244.534 329.454C243.661 332.123 242.07 334.151 239.76 335.537C237.45 336.923 234.473 337.616 230.828 337.616Z" fill="black"/>
<path d="M284.126 337.924C279.814 337.924 275.682 337.359 271.729 336.23C267.777 335.049 264.594 333.535 262.181 331.687L266.416 322.293C268.726 323.936 271.447 325.296 274.578 326.374C277.761 327.401 280.969 327.914 284.203 327.914C286.667 327.914 288.644 327.683 290.132 327.221C291.672 326.708 292.802 326.015 293.52 325.142C294.239 324.269 294.598 323.268 294.598 322.139C294.598 320.702 294.034 319.572 292.904 318.751C291.775 317.878 290.286 317.185 288.438 316.672C286.59 316.107 284.537 315.594 282.278 315.132C280.071 314.619 277.838 314.003 275.579 313.284C273.372 312.565 271.344 311.641 269.496 310.512C267.648 309.383 266.134 307.894 264.953 306.046C263.824 304.198 263.259 301.837 263.259 298.962C263.259 295.882 264.081 293.084 265.723 290.569C267.417 288.002 269.933 285.975 273.269 284.486C276.657 282.946 280.892 282.176 285.974 282.176C289.362 282.176 292.699 282.587 295.984 283.408C299.27 284.178 302.17 285.359 304.685 286.95L300.835 296.421C298.32 294.984 295.805 293.931 293.289 293.264C290.774 292.545 288.31 292.186 285.897 292.186C283.485 292.186 281.508 292.468 279.968 293.033C278.428 293.598 277.325 294.342 276.657 295.266C275.99 296.139 275.656 297.165 275.656 298.346C275.656 299.732 276.221 300.861 277.35 301.734C278.48 302.555 279.968 303.223 281.816 303.736C283.664 304.249 285.692 304.763 287.899 305.276C290.158 305.789 292.391 306.38 294.598 307.047C296.857 307.714 298.91 308.613 300.758 309.742C302.606 310.871 304.095 312.36 305.224 314.208C306.405 316.056 306.995 318.392 306.995 321.215C306.995 324.244 306.148 327.016 304.454 329.531C302.76 332.046 300.219 334.074 296.831 335.614C293.495 337.154 289.26 337.924 284.126 337.924Z" fill="#0A62D8"/>
<path d="M334.384 337.616C329.969 337.616 326.042 336.692 322.603 334.844C319.215 332.996 316.52 330.481 314.518 327.298C312.567 324.064 311.592 320.394 311.592 316.287C311.592 312.129 312.567 308.459 314.518 305.276C316.52 302.042 319.215 299.527 322.603 297.73C326.042 295.882 329.969 294.958 334.384 294.958C338.747 294.958 342.649 295.882 346.088 297.73C349.527 299.527 352.222 302.016 354.173 305.199C356.124 308.382 357.099 312.078 357.099 316.287C357.099 320.394 356.124 324.064 354.173 327.298C352.222 330.481 349.527 332.996 346.088 334.844C342.649 336.692 338.747 337.616 334.384 337.616ZM334.384 327.76C336.386 327.76 338.183 327.298 339.774 326.374C341.365 325.45 342.623 324.141 343.547 322.447C344.471 320.702 344.933 318.648 344.933 316.287C344.933 313.874 344.471 311.821 343.547 310.127C342.623 308.433 341.365 307.124 339.774 306.2C338.183 305.276 336.386 304.814 334.384 304.814C332.382 304.814 330.585 305.276 328.994 306.2C327.403 307.124 326.119 308.433 325.144 310.127C324.22 311.821 323.758 313.874 323.758 316.287C323.758 318.648 324.22 320.702 325.144 322.447C326.119 324.141 327.403 325.45 328.994 326.374C330.585 327.298 332.382 327.76 334.384 327.76Z" fill="#0A62D8"/>
<path d="M366.591 337V294.65C366.591 289.979 367.977 286.257 370.749 283.485C373.521 280.662 377.474 279.25 382.607 279.25C384.352 279.25 386.021 279.43 387.612 279.789C389.255 280.148 390.641 280.713 391.77 281.483L388.613 290.184C387.946 289.722 387.201 289.363 386.38 289.106C385.559 288.849 384.686 288.721 383.762 288.721C382.017 288.721 380.656 289.234 379.681 290.261C378.757 291.236 378.295 292.725 378.295 294.727V298.577L378.603 303.736V337H366.591ZM360.2 305.738V296.498H388.921V305.738H360.2Z" fill="#0A62D8"/>
<path d="M411.845 337.616C406.969 337.616 403.17 336.384 400.449 333.92C397.729 331.405 396.368 327.683 396.368 322.755V286.411H408.38V322.601C408.38 324.346 408.842 325.707 409.766 326.682C410.69 327.606 411.948 328.068 413.539 328.068C415.439 328.068 417.056 327.555 418.39 326.528L421.624 334.998C420.392 335.871 418.904 336.538 417.158 337C415.464 337.411 413.693 337.616 411.845 337.616ZM389.977 304.814V295.574H418.698V304.814H389.977Z" fill="#0A62D8"/>
<path d="M54.5455 366.084C53.8175 366.084 53.1175 365.967 52.4455 365.734C51.7828 365.491 51.2695 365.183 50.9055 364.81L51.3115 364.012C51.6568 364.348 52.1188 364.633 52.6975 364.866C53.2855 365.09 53.9015 365.202 54.5455 365.202C55.1615 365.202 55.6608 365.127 56.0435 364.978C56.4355 364.819 56.7201 364.609 56.8975 364.348C57.0841 364.087 57.1775 363.797 57.1775 363.48C57.1775 363.097 57.0655 362.789 56.8415 362.556C56.6268 362.323 56.3421 362.141 55.9875 362.01C55.6328 361.87 55.2408 361.749 54.8115 361.646C54.3821 361.543 53.9528 361.436 53.5235 361.324C53.0941 361.203 52.6975 361.044 52.3335 360.848C51.9788 360.652 51.6895 360.395 51.4655 360.078C51.2508 359.751 51.1435 359.327 51.1435 358.804C51.1435 358.319 51.2695 357.875 51.5215 357.474C51.7828 357.063 52.1795 356.737 52.7115 356.494C53.2435 356.242 53.9248 356.116 54.7555 356.116C55.3061 356.116 55.8521 356.195 56.3935 356.354C56.9348 356.503 57.4015 356.713 57.7935 356.984L57.4435 357.81C57.0235 357.53 56.5755 357.325 56.0995 357.194C55.6328 357.063 55.1801 356.998 54.7415 356.998C54.1535 356.998 53.6681 357.077 53.2855 357.236C52.9028 357.395 52.6181 357.609 52.4315 357.88C52.2541 358.141 52.1655 358.44 52.1655 358.776C52.1655 359.159 52.2728 359.467 52.4875 359.7C52.7115 359.933 53.0008 360.115 53.3555 360.246C53.7195 360.377 54.1161 360.493 54.5455 360.596C54.9748 360.699 55.3995 360.811 55.8195 360.932C56.2488 361.053 56.6408 361.212 56.9955 361.408C57.3595 361.595 57.6488 361.847 57.8635 362.164C58.0875 362.481 58.1995 362.897 58.1995 363.41C58.1995 363.886 58.0688 364.329 57.8075 364.74C57.5461 365.141 57.1448 365.468 56.6035 365.72C56.0715 365.963 55.3855 366.084 54.5455 366.084Z" fill="black"/>
<path d="M63.484 366V357.096H60.04V356.2H67.964V357.096H64.52V366H63.484Z" fill="black"/>
<path d="M75.0264 366.084C74.289 366.084 73.603 365.963 72.9684 365.72C72.343 365.468 71.797 365.118 71.3304 364.67C70.873 364.213 70.5137 363.685 70.2524 363.088C70.0004 362.481 69.8744 361.819 69.8744 361.1C69.8744 360.381 70.0004 359.723 70.2524 359.126C70.5137 358.519 70.873 357.992 71.3304 357.544C71.797 357.087 72.343 356.737 72.9684 356.494C73.5937 356.242 74.2797 356.116 75.0264 356.116C75.7637 356.116 76.445 356.242 77.0704 356.494C77.6957 356.737 78.237 357.082 78.6944 357.53C79.161 357.978 79.5204 358.505 79.7724 359.112C80.0337 359.719 80.1644 360.381 80.1644 361.1C80.1644 361.819 80.0337 362.481 79.7724 363.088C79.5204 363.695 79.161 364.222 78.6944 364.67C78.237 365.118 77.6957 365.468 77.0704 365.72C76.445 365.963 75.7637 366.084 75.0264 366.084ZM75.0264 365.16C75.6144 365.16 76.1557 365.062 76.6504 364.866C77.1544 364.661 77.5884 364.376 77.9524 364.012C78.3257 363.639 78.615 363.209 78.8204 362.724C79.0257 362.229 79.1284 361.688 79.1284 361.1C79.1284 360.512 79.0257 359.975 78.8204 359.49C78.615 358.995 78.3257 358.566 77.9524 358.202C77.5884 357.829 77.1544 357.544 76.6504 357.348C76.1557 357.143 75.6144 357.04 75.0264 357.04C74.4384 357.04 73.8924 357.143 73.3884 357.348C72.8844 357.544 72.4457 357.829 72.0724 358.202C71.7084 358.566 71.419 358.995 71.2044 359.49C70.999 359.975 70.8964 360.512 70.8964 361.1C70.8964 361.679 70.999 362.215 71.2044 362.71C71.419 363.205 71.7084 363.639 72.0724 364.012C72.4457 364.376 72.8844 364.661 73.3884 364.866C73.8924 365.062 74.4384 365.16 75.0264 365.16Z" fill="black"/>
<path d="M83.7465 366V356.2H84.6005L89.0805 363.844H88.6325L93.0705 356.2H93.9245V366H92.9305V357.754H93.1685L89.0805 364.754H88.5905L84.4745 357.754H84.7405V366H83.7465Z" fill="black"/>
<path d="M96.8096 366L101.29 356.2H102.312L106.792 366H105.7L101.584 356.802H102.004L97.8876 366H96.8096ZM98.5736 363.382L98.8816 362.542H104.58L104.888 363.382H98.5736Z" fill="black"/>
<path d="M111.085 366V357.096H107.641V356.2H115.565V357.096H112.121V366H111.085Z" fill="black"/>
<path d="M122.627 366.084C121.89 366.084 121.204 365.963 120.569 365.72C119.944 365.468 119.398 365.118 118.931 364.67C118.474 364.213 118.114 363.685 117.853 363.088C117.601 362.481 117.475 361.819 117.475 361.1C117.475 360.381 117.601 359.723 117.853 359.126C118.114 358.519 118.474 357.992 118.931 357.544C119.398 357.087 119.944 356.737 120.569 356.494C121.194 356.242 121.88 356.116 122.627 356.116C123.364 356.116 124.046 356.242 124.671 356.494C125.296 356.737 125.838 357.082 126.295 357.53C126.762 357.978 127.121 358.505 127.373 359.112C127.634 359.719 127.765 360.381 127.765 361.1C127.765 361.819 127.634 362.481 127.373 363.088C127.121 363.695 126.762 364.222 126.295 364.67C125.838 365.118 125.296 365.468 124.671 365.72C124.046 365.963 123.364 366.084 122.627 366.084ZM122.627 365.16C123.215 365.16 123.756 365.062 124.251 364.866C124.755 364.661 125.189 364.376 125.553 364.012C125.926 363.639 126.216 363.209 126.421 362.724C126.626 362.229 126.729 361.688 126.729 361.1C126.729 360.512 126.626 359.975 126.421 359.49C126.216 358.995 125.926 358.566 125.553 358.202C125.189 357.829 124.755 357.544 124.251 357.348C123.756 357.143 123.215 357.04 122.627 357.04C122.039 357.04 121.493 357.143 120.989 357.348C120.485 357.544 120.046 357.829 119.673 358.202C119.309 358.566 119.02 358.995 118.805 359.49C118.6 359.975 118.497 360.512 118.497 361.1C118.497 361.679 118.6 362.215 118.805 362.71C119.02 363.205 119.309 363.639 119.673 364.012C120.046 364.376 120.485 364.661 120.989 364.866C121.493 365.062 122.039 365.16 122.627 365.16Z" fill="black"/>
<path d="M131.347 366V356.2H132.383V365.104H137.871V366H131.347Z" fill="black"/>
<path d="M144.944 366.084C144.206 366.084 143.52 365.963 142.886 365.72C142.26 365.468 141.714 365.118 141.248 364.67C140.79 364.213 140.431 363.685 140.17 363.088C139.918 362.481 139.792 361.819 139.792 361.1C139.792 360.381 139.918 359.723 140.17 359.126C140.431 358.519 140.79 357.992 141.248 357.544C141.714 357.087 142.26 356.737 142.886 356.494C143.511 356.242 144.197 356.116 144.944 356.116C145.681 356.116 146.362 356.242 146.988 356.494C147.613 356.737 148.154 357.082 148.612 357.53C149.078 357.978 149.438 358.505 149.69 359.112C149.951 359.719 150.082 360.381 150.082 361.1C150.082 361.819 149.951 362.481 149.69 363.088C149.438 363.695 149.078 364.222 148.612 364.67C148.154 365.118 147.613 365.468 146.988 365.72C146.362 365.963 145.681 366.084 144.944 366.084ZM144.944 365.16C145.532 365.16 146.073 365.062 146.568 364.866C147.072 364.661 147.506 364.376 147.87 364.012C148.243 363.639 148.532 363.209 148.738 362.724C148.943 362.229 149.046 361.688 149.046 361.1C149.046 360.512 148.943 359.975 148.738 359.49C148.532 358.995 148.243 358.566 147.87 358.202C147.506 357.829 147.072 357.544 146.568 357.348C146.073 357.143 145.532 357.04 144.944 357.04C144.356 357.04 143.81 357.143 143.306 357.348C142.802 357.544 142.363 357.829 141.99 358.202C141.626 358.566 141.336 358.995 141.122 359.49C140.916 359.975 140.814 360.512 140.814 361.1C140.814 361.679 140.916 362.215 141.122 362.71C141.336 363.205 141.626 363.639 141.99 364.012C142.363 364.376 142.802 364.661 143.306 364.866C143.81 365.062 144.356 365.16 144.944 365.16Z" fill="black"/>
<path d="M157.962 366.084C157.215 366.084 156.525 365.963 155.89 365.72C155.265 365.468 154.719 365.118 154.252 364.67C153.795 364.222 153.435 363.695 153.174 363.088C152.922 362.481 152.796 361.819 152.796 361.1C152.796 360.381 152.922 359.719 153.174 359.112C153.435 358.505 153.799 357.978 154.266 357.53C154.733 357.082 155.279 356.737 155.904 356.494C156.539 356.242 157.229 356.116 157.976 356.116C158.723 356.116 159.404 356.233 160.02 356.466C160.645 356.699 161.177 357.054 161.616 357.53L160.972 358.188C160.561 357.777 160.109 357.483 159.614 357.306C159.119 357.129 158.587 357.04 158.018 357.04C157.411 357.04 156.851 357.143 156.338 357.348C155.834 357.544 155.391 357.829 155.008 358.202C154.635 358.566 154.341 358.995 154.126 359.49C153.921 359.975 153.818 360.512 153.818 361.1C153.818 361.679 153.921 362.215 154.126 362.71C154.341 363.205 154.635 363.639 155.008 364.012C155.391 364.376 155.834 364.661 156.338 364.866C156.851 365.062 157.407 365.16 158.004 365.16C158.564 365.16 159.091 365.076 159.586 364.908C160.09 364.74 160.552 364.455 160.972 364.054L161.56 364.838C161.093 365.249 160.547 365.561 159.922 365.776C159.297 365.981 158.643 366.084 157.962 366.084ZM161.56 364.838L160.566 364.712V361.1H161.56V364.838Z" fill="black"/>
<path d="M165.752 366V356.2H166.788V366H165.752ZM166.27 355.08C166.083 355.08 165.925 355.015 165.794 354.884C165.663 354.753 165.598 354.595 165.598 354.408C165.598 354.212 165.663 354.053 165.794 353.932C165.925 353.801 166.083 353.736 166.27 353.736C166.457 353.736 166.615 353.801 166.746 353.932C166.877 354.053 166.942 354.212 166.942 354.408C166.942 354.595 166.877 354.753 166.746 354.884C166.615 355.015 166.457 355.08 166.27 355.08Z" fill="black"/>
<path d="M173.37 366V362.36L173.608 363.004L169.45 356.2H170.556L174.21 362.178H173.622L177.276 356.2H178.312L174.154 363.004L174.392 362.36V366H173.37Z" fill="black"/>
<path d="M178.954 366L183.434 356.2H184.456L188.936 366H187.844L183.728 356.802H184.148L180.032 366H178.954ZM180.718 363.382L181.026 362.542H186.724L187.032 363.382H180.718Z" fill="black"/>
<path d="M196.741 366V356.2H197.777V366H196.741ZM197.259 355.08C197.073 355.08 196.914 355.015 196.783 354.884C196.653 354.753 196.587 354.595 196.587 354.408C196.587 354.212 196.653 354.053 196.783 353.932C196.914 353.801 197.073 353.736 197.259 353.736C197.446 353.736 197.605 353.801 197.735 353.932C197.866 354.053 197.931 354.212 197.931 354.408C197.931 354.595 197.866 354.753 197.735 354.884C197.605 355.015 197.446 355.08 197.259 355.08Z" fill="black"/>
<path d="M202.226 366V356.2H206.216C207.261 356.2 208.176 356.41 208.96 356.83C209.753 357.241 210.369 357.815 210.808 358.552C211.247 359.289 211.466 360.139 211.466 361.1C211.466 362.061 211.247 362.911 210.808 363.648C210.369 364.385 209.753 364.964 208.96 365.384C208.176 365.795 207.261 366 206.216 366H202.226ZM203.262 365.104H206.16C207.028 365.104 207.779 364.936 208.414 364.6C209.058 364.255 209.557 363.783 209.912 363.186C210.267 362.579 210.444 361.884 210.444 361.1C210.444 360.307 210.267 359.611 209.912 359.014C209.557 358.417 209.058 357.95 208.414 357.614C207.779 357.269 207.028 357.096 206.16 357.096H203.262V365.104Z" fill="black"/>
<path d="M213.348 366L217.828 356.2H218.85L223.33 366H222.238L218.122 356.802H218.542L214.426 366H213.348ZM215.112 363.382L215.42 362.542H221.118L221.426 363.382H215.112Z" fill="black"/>
<path d="M226.211 366V356.2H229.879C231.12 356.2 232.095 356.499 232.805 357.096C233.523 357.684 233.883 358.505 233.883 359.56C233.883 360.251 233.719 360.848 233.393 361.352C233.075 361.847 232.618 362.229 232.021 362.5C231.423 362.761 230.709 362.892 229.879 362.892H226.785L227.247 362.416V366H226.211ZM232.903 366L230.383 362.444H231.503L234.037 366H232.903ZM227.247 362.5L226.785 362.01H229.851C230.831 362.01 231.573 361.795 232.077 361.366C232.59 360.937 232.847 360.335 232.847 359.56C232.847 358.776 232.59 358.169 232.077 357.74C231.573 357.311 230.831 357.096 229.851 357.096H226.785L227.247 356.606V362.5Z" fill="black"/>
<path d="M241.718 366.084C240.999 366.084 240.332 365.963 239.716 365.72C239.109 365.468 238.582 365.118 238.134 364.67C237.686 364.213 237.336 363.681 237.084 363.074C236.841 362.458 236.72 361.786 236.72 361.058V360.75H245.806V361.632H237.392L237.742 361.1C237.742 361.697 237.84 362.248 238.036 362.752C238.232 363.247 238.503 363.676 238.848 364.04C239.203 364.404 239.623 364.689 240.108 364.894C240.593 365.09 241.13 365.188 241.718 365.188C242.278 365.188 242.796 365.09 243.272 364.894C243.757 364.698 244.177 364.418 244.532 364.054C244.896 363.69 245.176 363.261 245.372 362.766C245.568 362.271 245.666 361.735 245.666 361.156V361.058C245.666 360.479 245.563 359.947 245.358 359.462C245.153 358.977 244.863 358.552 244.49 358.188C244.126 357.824 243.697 357.544 243.202 357.348C242.707 357.143 242.175 357.04 241.606 357.04C241.214 357.04 240.831 357.082 240.458 357.166C240.085 357.241 239.73 357.362 239.394 357.53C239.067 357.698 238.759 357.913 238.47 358.174L237.854 357.46C238.162 357.171 238.507 356.928 238.89 356.732C239.282 356.527 239.707 356.373 240.164 356.27C240.631 356.167 241.111 356.116 241.606 356.116C242.343 356.116 243.02 356.242 243.636 356.494C244.261 356.737 244.803 357.082 245.26 357.53C245.717 357.978 246.072 358.505 246.324 359.112C246.576 359.719 246.702 360.377 246.702 361.086C246.702 361.795 246.576 362.453 246.324 363.06C246.072 363.667 245.717 364.199 245.26 364.656C244.812 365.104 244.285 365.454 243.678 365.706C243.071 365.958 242.418 366.084 241.718 366.084Z" fill="black"/>
<path d="M250.291 366V356.2H257.011V357.096H251.327V365.104H257.221V366H250.291ZM251.215 361.464V360.582H256.395V361.464H251.215Z" fill="black"/>
<path d="M262.82 366V357.096H259.377V356.2H267.301V357.096H263.857V366H262.82Z" fill="black"/>
<path d="M270.216 366V356.2H271.07L275.55 363.844H275.102L279.54 356.2H280.394V366H279.4V357.754H279.638L275.55 364.754H275.06L270.944 357.754H271.21V366H270.216Z" fill="black"/>
<path d="M288.977 366.084C288.258 366.084 287.591 365.963 286.975 365.72C286.368 365.468 285.841 365.118 285.393 364.67C284.945 364.213 284.595 363.681 284.343 363.074C284.1 362.458 283.979 361.786 283.979 361.058V360.75H293.065V361.632H284.651L285.001 361.1C285.001 361.697 285.099 362.248 285.295 362.752C285.491 363.247 285.761 363.676 286.107 364.04C286.461 364.404 286.881 364.689 287.367 364.894C287.852 365.09 288.389 365.188 288.977 365.188C289.537 365.188 290.055 365.09 290.531 364.894C291.016 364.698 291.436 364.418 291.791 364.054C292.155 363.69 292.435 363.261 292.631 362.766C292.827 362.271 292.925 361.735 292.925 361.156V361.058C292.925 360.479 292.822 359.947 292.617 359.462C292.411 358.977 292.122 358.552 291.749 358.188C291.385 357.824 290.955 357.544 290.461 357.348C289.966 357.143 289.434 357.04 288.865 357.04C288.473 357.04 288.09 357.082 287.717 357.166C287.343 357.241 286.989 357.362 286.653 357.53C286.326 357.698 286.018 357.913 285.729 358.174L285.113 357.46C285.421 357.171 285.766 356.928 286.149 356.732C286.541 356.527 286.965 356.373 287.423 356.27C287.889 356.167 288.37 356.116 288.865 356.116C289.602 356.116 290.279 356.242 290.895 356.494C291.52 356.737 292.061 357.082 292.519 357.53C292.976 357.978 293.331 358.505 293.583 359.112C293.835 359.719 293.961 360.377 293.961 361.086C293.961 361.795 293.835 362.453 293.583 363.06C293.331 363.667 292.976 364.199 292.519 364.656C292.071 365.104 291.543 365.454 290.937 365.706C290.33 365.958 289.677 366.084 288.977 366.084Z" fill="black"/>
<path d="M305.176 366.084C304.448 366.084 303.748 365.967 303.076 365.734C302.413 365.491 301.9 365.183 301.536 364.81L301.942 364.012C302.287 364.348 302.749 364.633 303.328 364.866C303.916 365.09 304.532 365.202 305.176 365.202C305.792 365.202 306.291 365.127 306.674 364.978C307.066 364.819 307.351 364.609 307.528 364.348C307.715 364.087 307.808 363.797 307.808 363.48C307.808 363.097 307.696 362.789 307.472 362.556C307.257 362.323 306.973 362.141 306.618 362.01C306.263 361.87 305.871 361.749 305.442 361.646C305.013 361.543 304.583 361.436 304.154 361.324C303.725 361.203 303.328 361.044 302.964 360.848C302.609 360.652 302.32 360.395 302.096 360.078C301.881 359.751 301.774 359.327 301.774 358.804C301.774 358.319 301.9 357.875 302.152 357.474C302.413 357.063 302.81 356.737 303.342 356.494C303.874 356.242 304.555 356.116 305.386 356.116C305.937 356.116 306.483 356.195 307.024 356.354C307.565 356.503 308.032 356.713 308.424 356.984L308.074 357.81C307.654 357.53 307.206 357.325 306.73 357.194C306.263 357.063 305.811 356.998 305.372 356.998C304.784 356.998 304.299 357.077 303.916 357.236C303.533 357.395 303.249 357.609 303.062 357.88C302.885 358.141 302.796 358.44 302.796 358.776C302.796 359.159 302.903 359.467 303.118 359.7C303.342 359.933 303.631 360.115 303.986 360.246C304.35 360.377 304.747 360.493 305.176 360.596C305.605 360.699 306.03 360.811 306.45 360.932C306.879 361.053 307.271 361.212 307.626 361.408C307.99 361.595 308.279 361.847 308.494 362.164C308.718 362.481 308.83 362.897 308.83 363.41C308.83 363.886 308.699 364.329 308.438 364.74C308.177 365.141 307.775 365.468 307.234 365.72C306.702 365.963 306.016 366.084 305.176 366.084Z" fill="black"/>
<path d="M312.347 366V356.2H313.383V366H312.347ZM312.865 355.08C312.679 355.08 312.52 355.015 312.389 354.884C312.259 354.753 312.193 354.595 312.193 354.408C312.193 354.212 312.259 354.053 312.389 353.932C312.52 353.801 312.679 353.736 312.865 353.736C313.052 353.736 313.211 353.801 313.341 353.932C313.472 354.053 313.537 354.212 313.537 354.408C313.537 354.595 313.472 354.753 313.341 354.884C313.211 355.015 313.052 355.08 312.865 355.08Z" fill="black"/>
<path d="M320.534 366.084C319.806 366.084 319.106 365.967 318.434 365.734C317.771 365.491 317.258 365.183 316.894 364.81L317.3 364.012C317.645 364.348 318.107 364.633 318.686 364.866C319.274 365.09 319.89 365.202 320.534 365.202C321.15 365.202 321.649 365.127 322.032 364.978C322.424 364.819 322.709 364.609 322.886 364.348C323.073 364.087 323.166 363.797 323.166 363.48C323.166 363.097 323.054 362.789 322.83 362.556C322.615 362.323 322.331 362.141 321.976 362.01C321.621 361.87 321.229 361.749 320.8 361.646C320.371 361.543 319.941 361.436 319.512 361.324C319.083 361.203 318.686 361.044 318.322 360.848C317.967 360.652 317.678 360.395 317.454 360.078C317.239 359.751 317.132 359.327 317.132 358.804C317.132 358.319 317.258 357.875 317.51 357.474C317.771 357.063 318.168 356.737 318.7 356.494C319.232 356.242 319.913 356.116 320.744 356.116C321.295 356.116 321.841 356.195 322.382 356.354C322.923 356.503 323.39 356.713 323.782 356.984L323.432 357.81C323.012 357.53 322.564 357.325 322.088 357.194C321.621 357.063 321.169 356.998 320.73 356.998C320.142 356.998 319.657 357.077 319.274 357.236C318.891 357.395 318.607 357.609 318.42 357.88C318.243 358.141 318.154 358.44 318.154 358.776C318.154 359.159 318.261 359.467 318.476 359.7C318.7 359.933 318.989 360.115 319.344 360.246C319.708 360.377 320.105 360.493 320.534 360.596C320.963 360.699 321.388 360.811 321.808 360.932C322.237 361.053 322.629 361.212 322.984 361.408C323.348 361.595 323.637 361.847 323.852 362.164C324.076 362.481 324.188 362.897 324.188 363.41C324.188 363.886 324.057 364.329 323.796 364.74C323.535 365.141 323.133 365.468 322.592 365.72C322.06 365.963 321.374 366.084 320.534 366.084Z" fill="black"/>
<path d="M329.473 366V357.096H326.029V356.2H333.953V357.096H330.509V366H329.473Z" fill="black"/>
<path d="M336.868 366V356.2H343.588V357.096H337.904V365.104H343.798V366H336.868ZM337.792 361.464V360.582H342.972V361.464H337.792Z" fill="black"/>
<path d="M347.493 366V356.2H348.347L352.827 363.844H352.379L356.817 356.2H357.671V366H356.677V357.754H356.915L352.827 364.754H352.337L348.221 357.754H348.487V366H347.493Z" fill="black"/>
<path d="M362.124 366V356.2H363.16V366H362.124ZM362.642 355.08C362.455 355.08 362.297 355.015 362.166 354.884C362.035 354.753 361.97 354.595 361.97 354.408C361.97 354.212 362.035 354.053 362.166 353.932C362.297 353.801 362.455 353.736 362.642 353.736C362.829 353.736 362.987 353.801 363.118 353.932C363.249 354.053 363.314 354.212 363.314 354.408C363.314 354.595 363.249 354.753 363.118 354.884C362.987 355.015 362.829 355.08 362.642 355.08Z" fill="black"/>
<path d="M380 361.5H412.5" stroke="#0E97E7"/>
<path d="M4 361.5H36.5" stroke="#0E97E7"/>
<defs>
<linearGradient id="paint0_linear_1_113" x1="163.75" y1="136" x2="163.75" y2="262" gradientUnits="userSpaceOnUse">
<stop stop-color="#072A7D"/>
<stop offset="1" stop-color="#072161"/>
</linearGradient>
<linearGradient id="paint1_linear_1_113" x1="194.766" y1="0" x2="194.766" y2="262.391" gradientUnits="userSpaceOnUse">
<stop offset="0.411306" stop-color="#299AE4"/>
<stop offset="0.646856" stop-color="#07256A"/>
<stop offset="0.963471" stop-color="#07256A"/>
</linearGradient>
<linearGradient id="paint2_linear_1_113" x1="166" y1="125" x2="293.8" y2="125" gradientUnits="userSpaceOnUse">
<stop stop-color="#44B0E7"/>
<stop offset="1" stop-color="#0E71D4"/>
</linearGradient>
<linearGradient id="paint3_linear_1_113" x1="248.26" y1="4.43739" x2="248.26" y2="115" gradientUnits="userSpaceOnUse">
<stop stop-color="#11ACEA"/>
<stop offset="1" stop-color="#0688EB"/>
</linearGradient>
</defs>
</svg>
