<svg width="420" height="367" viewBox="0 0 420 367" fill="none" xmlns="http://www.w3.org/2000/svg">
<path d="M120.844 180C120.136 160.016 118.755 150.172 113.844 136C121.593 145.31 125.698 151.435 130.344 172.5C133.115 188.63 135.04 197.379 140.344 211.5C147.902 223.589 151.892 228.373 157.844 227.5C162.709 227.647 165.663 223.443 171.344 208C176.91 195.197 181.346 189.886 192.844 185.5C201.788 184.381 205.702 185.094 211.344 188C197.491 188.557 191.741 193.052 184.344 207C179.393 219.689 177.804 228.651 175.844 246C172.851 257.991 169.451 262.002 158.844 262C148.029 259.02 143.206 255.832 137.844 247C130.728 236.395 127.788 229.595 124.344 216C122.06 203.215 121.345 195.261 120.844 180Z" fill="url(#paint0_linear_1_99)"/>
<path d="M188.348 9.10941C202.792 15.8404 210.892 18.297 225.348 15.1094C213.743 23.0207 207.105 26.908 194.848 32.1094C189.013 31.6057 185.724 30.6669 179.848 28.6094C172.616 26.6265 168.566 25.977 161.348 25.6094C145.069 25.8708 137.929 30.4656 127.848 44.6094C121.723 60.3379 123.071 69.2085 133.848 85.1094C144.18 97.6493 154.052 105.28 183.348 120.609C212.014 133.583 227.668 140.816 249.348 153.109C269.155 164.802 277.81 173.091 285.848 193.109C291.404 215.197 288.115 226.979 272.848 247.109C254.539 261.951 244.251 265.282 225.848 260.109C237.137 251.722 241.654 246.832 244.848 237.609C249.019 221.211 246.711 212.564 234.348 198.109C221.045 186.969 211.46 181.443 191.348 172.609C171.936 164.298 161.406 159.044 143.848 147.609C124.444 132.768 117.089 124.062 107.848 108.109C99.5964 91.5867 96.7243 81.4243 96.8478 60.6094C98.9045 40.6669 102.245 31.2512 113.348 18.6094C123.838 8.06389 130.627 3.29628 147.348 0.609411C161.992 -1.35437 171.204 1.41464 188.348 9.10941Z" fill="url(#paint1_linear_1_99)"/>
<path d="M247.344 65C257.971 68.2177 263.883 71.269 274.344 79L262.844 77C251.27 75.3055 244.211 75.1617 230.844 76C220.649 76.9588 216.177 78.422 210.844 83C207.294 87.284 207.443 89.9152 211.344 95C215.579 99.0051 218.616 101.302 225.344 105.5L251.344 120C263.8 126.701 270.07 131.16 279.844 140.5C287.218 147.852 290.091 153.095 292.344 165C293.041 177.41 292.417 182.819 290.344 191C287.761 178.981 285.287 173.36 279.344 165C273.983 158.353 270.514 154.834 263.344 149C255.206 143.06 250.311 139.972 240.844 135L219.344 124L192.844 110.5C181.135 104.277 176.068 100.427 169.344 93C165.818 87.6251 164.823 84.5622 164.844 79C165.453 73.2587 166.693 70.2771 172.844 66C181.25 61.3673 187.049 59.6543 200.344 59H218.344L222.844 59.5C230.585 60.4652 235.708 61.5138 247.344 65Z" fill="url(#paint2_linear_1_99)"/>
<path d="M208.844 86.5C210.967 68.0696 227.499 68.7791 267.344 77.5C235.649 74.8621 218.049 73.502 208.844 86.5Z" fill="#73BADE"/>
<path d="M290.344 157C287.479 146.848 280.615 140.542 265.844 129C281.722 149.439 288.204 160.755 292.344 180.5C292.97 169.53 292.715 164.152 290.344 157Z" fill="#3398EB"/>
<path d="M221.844 15.5C208.964 24.3693 202.985 30.8692 185.844 34.5C196.344 36.5214 202.437 36.5113 213.844 33.5C226.223 28.5076 233.152 25.6624 245.844 22C259.199 18.9019 266.555 18.754 279.344 22.5C291.816 28.2409 296.499 33.3186 300.344 46C302.113 57.3147 301.966 65.2087 299.344 82.5L290.844 115C295.577 105.187 298.137 99.6129 301.844 89C306.828 73.6993 308.581 65.1507 308.344 50C307.502 34.0699 304.076 26.5312 292.844 15.5C281.068 6.65649 273.322 3.97663 256.844 4.5C243.854 5.94876 236.258 8.07697 221.844 15.5Z" fill="url(#paint3_linear_1_99)"/>
<path d="M21.945 337.924C17.633 337.924 13.5007 337.359 9.548 336.23C5.59533 335.049 2.41267 333.535 0 331.687L4.235 322.293C6.545 323.936 9.26567 325.296 12.397 326.374C15.5797 327.401 18.788 327.914 22.022 327.914C24.486 327.914 26.4623 327.683 27.951 327.221C29.491 326.708 30.6203 326.015 31.339 325.142C32.0577 324.269 32.417 323.268 32.417 322.139C32.417 320.702 31.8523 319.572 30.723 318.751C29.5937 317.878 28.105 317.185 26.257 316.672C24.409 316.107 22.3557 315.594 20.097 315.132C17.8897 314.619 15.6567 314.003 13.398 313.284C11.1907 312.565 9.163 311.641 7.315 310.512C5.467 309.383 3.95267 307.894 2.772 306.046C1.64267 304.198 1.078 301.837 1.078 298.962C1.078 295.882 1.89933 293.084 3.542 290.569C5.236 288.002 7.75133 285.975 11.088 284.486C14.476 282.946 18.711 282.176 23.793 282.176C27.181 282.176 30.5177 282.587 33.803 283.408C37.0883 284.178 39.9887 285.359 42.504 286.95L38.654 296.421C36.1387 294.984 33.6233 293.931 31.108 293.264C28.5927 292.545 26.1287 292.186 23.716 292.186C21.3033 292.186 19.327 292.468 17.787 293.033C16.247 293.598 15.1433 294.342 14.476 295.266C13.8087 296.139 13.475 297.165 13.475 298.346C13.475 299.732 14.0397 300.861 15.169 301.734C16.2983 302.555 17.787 303.223 19.635 303.736C21.483 304.249 23.5107 304.763 25.718 305.276C27.9767 305.789 30.2097 306.38 32.417 307.047C34.6757 307.714 36.729 308.613 38.577 309.742C40.425 310.871 41.9137 312.36 43.043 314.208C44.2237 316.056 44.814 318.392 44.814 321.215C44.814 324.244 43.967 327.016 42.273 329.531C40.579 332.046 38.038 334.074 34.65 335.614C31.3133 337.154 27.0783 337.924 21.945 337.924Z" fill="black"/>
<path d="M69.4305 337.616C64.5539 337.616 60.7552 336.384 58.0345 333.92C55.3139 331.405 53.9535 327.683 53.9535 322.755V286.411H65.9655V322.601C65.9655 324.346 66.4275 325.707 67.3515 326.682C68.2755 327.606 69.5332 328.068 71.1245 328.068C73.0239 328.068 74.6409 327.555 75.9755 326.528L79.2095 334.998C77.9775 335.871 76.4889 336.538 74.7435 337C73.0495 337.411 71.2785 337.616 69.4305 337.616ZM47.5625 304.814V295.574H76.2835V304.814H47.5625Z" fill="black"/>
<path d="M104.386 337.616C99.9715 337.616 96.0445 336.692 92.6051 334.844C89.2171 332.996 86.5221 330.481 84.5201 327.298C82.5695 324.064 81.5941 320.394 81.5941 316.287C81.5941 312.129 82.5695 308.459 84.5201 305.276C86.5221 302.042 89.2171 299.527 92.6051 297.73C96.0445 295.882 99.9715 294.958 104.386 294.958C108.749 294.958 112.651 295.882 116.09 297.73C119.529 299.527 122.224 302.016 124.175 305.199C126.126 308.382 127.101 312.078 127.101 316.287C127.101 320.394 126.126 324.064 124.175 327.298C122.224 330.481 119.529 332.996 116.09 334.844C112.651 336.692 108.749 337.616 104.386 337.616ZM104.386 327.76C106.388 327.76 108.185 327.298 109.776 326.374C111.367 325.45 112.625 324.141 113.549 322.447C114.473 320.702 114.935 318.648 114.935 316.287C114.935 313.874 114.473 311.821 113.549 310.127C112.625 308.433 111.367 307.124 109.776 306.2C108.185 305.276 106.388 304.814 104.386 304.814C102.384 304.814 100.587 305.276 98.9961 306.2C97.4048 307.124 96.1215 308.433 95.1461 310.127C94.2221 311.821 93.7601 313.874 93.7601 316.287C93.7601 318.648 94.2221 320.702 95.1461 322.447C96.1215 324.141 97.4048 325.45 98.9961 326.374C100.587 327.298 102.384 327.76 104.386 327.76Z" fill="black"/>
<path d="M135.13 337V295.574H146.603V306.893L144.447 303.582C145.885 300.759 147.912 298.628 150.53 297.191C153.2 295.702 156.228 294.958 159.616 294.958C163.415 294.958 166.726 295.933 169.549 297.884C172.424 299.783 174.323 302.709 175.247 306.662L171.012 305.507C172.398 302.273 174.606 299.706 177.634 297.807C180.714 295.908 184.231 294.958 188.183 294.958C191.469 294.958 194.369 295.625 196.884 296.96C199.451 298.243 201.453 300.245 202.89 302.966C204.379 305.635 205.123 309.075 205.123 313.284V337H193.111V315.132C193.111 311.795 192.418 309.331 191.032 307.74C189.646 306.149 187.696 305.353 185.18 305.353C183.435 305.353 181.869 305.764 180.483 306.585C179.097 307.355 178.019 308.536 177.249 310.127C176.479 311.718 176.094 313.746 176.094 316.21V337H164.082V315.132C164.082 311.795 163.389 309.331 162.003 307.74C160.669 306.149 158.744 305.353 156.228 305.353C154.483 305.353 152.917 305.764 151.531 306.585C150.145 307.355 149.067 308.536 148.297 310.127C147.527 311.718 147.142 313.746 147.142 316.21V337H135.13Z" fill="black"/>
<path d="M241.3 337V328.915L240.53 327.144V312.668C240.53 310.101 239.734 308.099 238.143 306.662C236.603 305.225 234.216 304.506 230.982 304.506C228.775 304.506 226.593 304.865 224.437 305.584C222.332 306.251 220.536 307.175 219.047 308.356L214.735 299.963C216.994 298.372 219.714 297.14 222.897 296.267C226.08 295.394 229.314 294.958 232.599 294.958C238.913 294.958 243.815 296.447 247.306 299.424C250.797 302.401 252.542 307.047 252.542 313.361V337H241.3ZM228.672 337.616C225.438 337.616 222.666 337.077 220.356 335.999C218.046 334.87 216.275 333.355 215.043 331.456C213.811 329.557 213.195 327.426 213.195 325.065C213.195 322.601 213.785 320.445 214.966 318.597C216.198 316.749 218.123 315.312 220.741 314.285C223.359 313.207 226.773 312.668 230.982 312.668H241.993V319.675H232.291C229.468 319.675 227.517 320.137 226.439 321.061C225.412 321.985 224.899 323.14 224.899 324.526C224.899 326.066 225.489 327.298 226.67 328.222C227.902 329.095 229.57 329.531 231.675 329.531C233.677 329.531 235.474 329.069 237.065 328.145C238.656 327.17 239.811 325.758 240.53 323.91L242.378 329.454C241.505 332.123 239.914 334.151 237.604 335.537C235.294 336.923 232.317 337.616 228.672 337.616Z" fill="black"/>
<path d="M281.97 337.924C277.658 337.924 273.526 337.359 269.573 336.23C265.621 335.049 262.438 333.535 260.025 331.687L264.26 322.293C266.57 323.936 269.291 325.296 272.422 326.374C275.605 327.401 278.813 327.914 282.047 327.914C284.511 327.914 286.488 327.683 287.976 327.221C289.516 326.708 290.646 326.015 291.364 325.142C292.083 324.269 292.442 323.268 292.442 322.139C292.442 320.702 291.878 319.572 290.748 318.751C289.619 317.878 288.13 317.185 286.282 316.672C284.434 316.107 282.381 315.594 280.122 315.132C277.915 314.619 275.682 314.003 273.423 313.284C271.216 312.565 269.188 311.641 267.34 310.512C265.492 309.383 263.978 307.894 262.797 306.046C261.668 304.198 261.103 301.837 261.103 298.962C261.103 295.882 261.925 293.084 263.567 290.569C265.261 288.002 267.777 285.975 271.113 284.486C274.501 282.946 278.736 282.176 283.818 282.176C287.206 282.176 290.543 282.587 293.828 283.408C297.114 284.178 300.014 285.359 302.529 286.95L298.679 296.421C296.164 294.984 293.649 293.931 291.133 293.264C288.618 292.545 286.154 292.186 283.741 292.186C281.329 292.186 279.352 292.468 277.812 293.033C276.272 293.598 275.169 294.342 274.501 295.266C273.834 296.139 273.5 297.165 273.5 298.346C273.5 299.732 274.065 300.861 275.194 301.734C276.324 302.555 277.812 303.223 279.66 303.736C281.508 304.249 283.536 304.763 285.743 305.276C288.002 305.789 290.235 306.38 292.442 307.047C294.701 307.714 296.754 308.613 298.602 309.742C300.45 310.871 301.939 312.36 303.068 314.208C304.249 316.056 304.839 318.392 304.839 321.215C304.839 324.244 303.992 327.016 302.298 329.531C300.604 332.046 298.063 334.074 294.675 335.614C291.339 337.154 287.104 337.924 281.97 337.924Z" fill="#0A62D8"/>
<path d="M332.228 337.616C327.813 337.616 323.886 336.692 320.447 334.844C317.059 332.996 314.364 330.481 312.362 327.298C310.411 324.064 309.436 320.394 309.436 316.287C309.436 312.129 310.411 308.459 312.362 305.276C314.364 302.042 317.059 299.527 320.447 297.73C323.886 295.882 327.813 294.958 332.228 294.958C336.591 294.958 340.493 295.882 343.932 297.73C347.371 299.527 350.066 302.016 352.017 305.199C353.968 308.382 354.943 312.078 354.943 316.287C354.943 320.394 353.968 324.064 352.017 327.298C350.066 330.481 347.371 332.996 343.932 334.844C340.493 336.692 336.591 337.616 332.228 337.616ZM332.228 327.76C334.23 327.76 336.027 327.298 337.618 326.374C339.209 325.45 340.467 324.141 341.391 322.447C342.315 320.702 342.777 318.648 342.777 316.287C342.777 313.874 342.315 311.821 341.391 310.127C340.467 308.433 339.209 307.124 337.618 306.2C336.027 305.276 334.23 304.814 332.228 304.814C330.226 304.814 328.429 305.276 326.838 306.2C325.247 307.124 323.963 308.433 322.988 310.127C322.064 311.821 321.602 313.874 321.602 316.287C321.602 318.648 322.064 320.702 322.988 322.447C323.963 324.141 325.247 325.45 326.838 326.374C328.429 327.298 330.226 327.76 332.228 327.76Z" fill="#0A62D8"/>
<path d="M364.435 337V294.65C364.435 289.979 365.821 286.257 368.593 283.485C371.365 280.662 375.318 279.25 380.451 279.25C382.196 279.25 383.865 279.43 385.456 279.789C387.099 280.148 388.485 280.713 389.614 281.483L386.457 290.184C385.79 289.722 385.045 289.363 384.224 289.106C383.403 288.849 382.53 288.721 381.606 288.721C379.861 288.721 378.5 289.234 377.525 290.261C376.601 291.236 376.139 292.725 376.139 294.727V298.577L376.447 303.736V337H364.435ZM358.044 305.738V296.498H386.765V305.738H358.044Z" fill="#0A62D8"/>
<path d="M409.689 337.616C404.813 337.616 401.014 336.384 398.293 333.92C395.573 331.405 394.212 327.683 394.212 322.755V286.411H406.224V322.601C406.224 324.346 406.686 325.707 407.61 326.682C408.534 327.606 409.792 328.068 411.383 328.068C413.283 328.068 414.9 327.555 416.234 326.528L419.468 334.998C418.236 335.871 416.748 336.538 415.002 337C413.308 337.411 411.537 337.616 409.689 337.616ZM387.821 304.814V295.574H416.542V304.814H387.821Z" fill="#0A62D8"/>
<path d="M52.3895 366.084C51.6615 366.084 50.9615 365.967 50.2895 365.734C49.6268 365.491 49.1135 365.183 48.7495 364.81L49.1555 364.012C49.5008 364.348 49.9628 364.633 50.5415 364.866C51.1295 365.09 51.7455 365.202 52.3895 365.202C53.0055 365.202 53.5048 365.127 53.8875 364.978C54.2795 364.819 54.5641 364.609 54.7415 364.348C54.9281 364.087 55.0215 363.797 55.0215 363.48C55.0215 363.097 54.9095 362.789 54.6855 362.556C54.4708 362.323 54.1861 362.141 53.8315 362.01C53.4768 361.87 53.0848 361.749 52.6555 361.646C52.2261 361.543 51.7968 361.436 51.3675 361.324C50.9381 361.203 50.5415 361.044 50.1775 360.848C49.8228 360.652 49.5335 360.395 49.3095 360.078C49.0948 359.751 48.9875 359.327 48.9875 358.804C48.9875 358.319 49.1135 357.875 49.3655 357.474C49.6268 357.063 50.0235 356.737 50.5555 356.494C51.0875 356.242 51.7688 356.116 52.5995 356.116C53.1501 356.116 53.6961 356.195 54.2375 356.354C54.7788 356.503 55.2455 356.713 55.6375 356.984L55.2875 357.81C54.8675 357.53 54.4195 357.325 53.9435 357.194C53.4768 357.063 53.0241 356.998 52.5855 356.998C51.9975 356.998 51.5121 357.077 51.1295 357.236C50.7468 357.395 50.4621 357.609 50.2755 357.88C50.0981 358.141 50.0095 358.44 50.0095 358.776C50.0095 359.159 50.1168 359.467 50.3315 359.7C50.5555 359.933 50.8448 360.115 51.1995 360.246C51.5635 360.377 51.9601 360.493 52.3895 360.596C52.8188 360.699 53.2435 360.811 53.6635 360.932C54.0928 361.053 54.4848 361.212 54.8395 361.408C55.2035 361.595 55.4928 361.847 55.7075 362.164C55.9315 362.481 56.0435 362.897 56.0435 363.41C56.0435 363.886 55.9128 364.329 55.6515 364.74C55.3901 365.141 54.9888 365.468 54.4475 365.72C53.9155 365.963 53.2295 366.084 52.3895 366.084Z" fill="black"/>
<path d="M61.328 366V357.096H57.884V356.2H65.808V357.096H62.364V366H61.328Z" fill="black"/>
<path d="M72.8704 366.084C72.133 366.084 71.447 365.963 70.8124 365.72C70.187 365.468 69.641 365.118 69.1744 364.67C68.717 364.213 68.3577 363.685 68.0964 363.088C67.8444 362.481 67.7184 361.819 67.7184 361.1C67.7184 360.381 67.8444 359.723 68.0964 359.126C68.3577 358.519 68.717 357.992 69.1744 357.544C69.641 357.087 70.187 356.737 70.8124 356.494C71.4377 356.242 72.1237 356.116 72.8704 356.116C73.6077 356.116 74.289 356.242 74.9144 356.494C75.5397 356.737 76.081 357.082 76.5384 357.53C77.005 357.978 77.3644 358.505 77.6164 359.112C77.8777 359.719 78.0084 360.381 78.0084 361.1C78.0084 361.819 77.8777 362.481 77.6164 363.088C77.3644 363.695 77.005 364.222 76.5384 364.67C76.081 365.118 75.5397 365.468 74.9144 365.72C74.289 365.963 73.6077 366.084 72.8704 366.084ZM72.8704 365.16C73.4584 365.16 73.9997 365.062 74.4944 364.866C74.9984 364.661 75.4324 364.376 75.7964 364.012C76.1697 363.639 76.459 363.209 76.6644 362.724C76.8697 362.229 76.9724 361.688 76.9724 361.1C76.9724 360.512 76.8697 359.975 76.6644 359.49C76.459 358.995 76.1697 358.566 75.7964 358.202C75.4324 357.829 74.9984 357.544 74.4944 357.348C73.9997 357.143 73.4584 357.04 72.8704 357.04C72.2824 357.04 71.7364 357.143 71.2324 357.348C70.7284 357.544 70.2897 357.829 69.9164 358.202C69.5524 358.566 69.263 358.995 69.0484 359.49C68.843 359.975 68.7404 360.512 68.7404 361.1C68.7404 361.679 68.843 362.215 69.0484 362.71C69.263 363.205 69.5524 363.639 69.9164 364.012C70.2897 364.376 70.7284 364.661 71.2324 364.866C71.7364 365.062 72.2824 365.16 72.8704 365.16Z" fill="black"/>
<path d="M81.5905 366V356.2H82.4445L86.9245 363.844H86.4765L90.9145 356.2H91.7685V366H90.7745V357.754H91.0125L86.9245 364.754H86.4345L82.3185 357.754H82.5845V366H81.5905Z" fill="black"/>
<path d="M94.6536 366L99.1336 356.2H100.156L104.636 366H103.544L99.4276 356.802H99.8476L95.7316 366H94.6536ZM96.4176 363.382L96.7256 362.542H102.424L102.732 363.382H96.4176Z" fill="black"/>
<path d="M108.929 366V357.096H105.485V356.2H113.409V357.096H109.965V366H108.929Z" fill="black"/>
<path d="M120.471 366.084C119.734 366.084 119.048 365.963 118.413 365.72C117.788 365.468 117.242 365.118 116.775 364.67C116.318 364.213 115.958 363.685 115.697 363.088C115.445 362.481 115.319 361.819 115.319 361.1C115.319 360.381 115.445 359.723 115.697 359.126C115.958 358.519 116.318 357.992 116.775 357.544C117.242 357.087 117.788 356.737 118.413 356.494C119.038 356.242 119.724 356.116 120.471 356.116C121.208 356.116 121.89 356.242 122.515 356.494C123.14 356.737 123.682 357.082 124.139 357.53C124.606 357.978 124.965 358.505 125.217 359.112C125.478 359.719 125.609 360.381 125.609 361.1C125.609 361.819 125.478 362.481 125.217 363.088C124.965 363.695 124.606 364.222 124.139 364.67C123.682 365.118 123.14 365.468 122.515 365.72C121.89 365.963 121.208 366.084 120.471 366.084ZM120.471 365.16C121.059 365.16 121.6 365.062 122.095 364.866C122.599 364.661 123.033 364.376 123.397 364.012C123.77 363.639 124.06 363.209 124.265 362.724C124.47 362.229 124.573 361.688 124.573 361.1C124.573 360.512 124.47 359.975 124.265 359.49C124.06 358.995 123.77 358.566 123.397 358.202C123.033 357.829 122.599 357.544 122.095 357.348C121.6 357.143 121.059 357.04 120.471 357.04C119.883 357.04 119.337 357.143 118.833 357.348C118.329 357.544 117.89 357.829 117.517 358.202C117.153 358.566 116.864 358.995 116.649 359.49C116.444 359.975 116.341 360.512 116.341 361.1C116.341 361.679 116.444 362.215 116.649 362.71C116.864 363.205 117.153 363.639 117.517 364.012C117.89 364.376 118.329 364.661 118.833 364.866C119.337 365.062 119.883 365.16 120.471 365.16Z" fill="black"/>
<path d="M129.191 366V356.2H130.227V365.104H135.715V366H129.191Z" fill="black"/>
<path d="M142.788 366.084C142.05 366.084 141.364 365.963 140.73 365.72C140.104 365.468 139.558 365.118 139.092 364.67C138.634 364.213 138.275 363.685 138.014 363.088C137.762 362.481 137.636 361.819 137.636 361.1C137.636 360.381 137.762 359.723 138.014 359.126C138.275 358.519 138.634 357.992 139.092 357.544C139.558 357.087 140.104 356.737 140.73 356.494C141.355 356.242 142.041 356.116 142.788 356.116C143.525 356.116 144.206 356.242 144.832 356.494C145.457 356.737 145.998 357.082 146.456 357.53C146.922 357.978 147.282 358.505 147.534 359.112C147.795 359.719 147.926 360.381 147.926 361.1C147.926 361.819 147.795 362.481 147.534 363.088C147.282 363.695 146.922 364.222 146.456 364.67C145.998 365.118 145.457 365.468 144.832 365.72C144.206 365.963 143.525 366.084 142.788 366.084ZM142.788 365.16C143.376 365.16 143.917 365.062 144.412 364.866C144.916 364.661 145.35 364.376 145.714 364.012C146.087 363.639 146.376 363.209 146.582 362.724C146.787 362.229 146.89 361.688 146.89 361.1C146.89 360.512 146.787 359.975 146.582 359.49C146.376 358.995 146.087 358.566 145.714 358.202C145.35 357.829 144.916 357.544 144.412 357.348C143.917 357.143 143.376 357.04 142.788 357.04C142.2 357.04 141.654 357.143 141.15 357.348C140.646 357.544 140.207 357.829 139.834 358.202C139.47 358.566 139.18 358.995 138.966 359.49C138.76 359.975 138.658 360.512 138.658 361.1C138.658 361.679 138.76 362.215 138.966 362.71C139.18 363.205 139.47 363.639 139.834 364.012C140.207 364.376 140.646 364.661 141.15 364.866C141.654 365.062 142.2 365.16 142.788 365.16Z" fill="black"/>
<path d="M155.806 366.084C155.059 366.084 154.369 365.963 153.734 365.72C153.109 365.468 152.563 365.118 152.096 364.67C151.639 364.222 151.279 363.695 151.018 363.088C150.766 362.481 150.64 361.819 150.64 361.1C150.64 360.381 150.766 359.719 151.018 359.112C151.279 358.505 151.643 357.978 152.11 357.53C152.577 357.082 153.123 356.737 153.748 356.494C154.383 356.242 155.073 356.116 155.82 356.116C156.567 356.116 157.248 356.233 157.864 356.466C158.489 356.699 159.021 357.054 159.46 357.53L158.816 358.188C158.405 357.777 157.953 357.483 157.458 357.306C156.963 357.129 156.431 357.04 155.862 357.04C155.255 357.04 154.695 357.143 154.182 357.348C153.678 357.544 153.235 357.829 152.852 358.202C152.479 358.566 152.185 358.995 151.97 359.49C151.765 359.975 151.662 360.512 151.662 361.1C151.662 361.679 151.765 362.215 151.97 362.71C152.185 363.205 152.479 363.639 152.852 364.012C153.235 364.376 153.678 364.661 154.182 364.866C154.695 365.062 155.251 365.16 155.848 365.16C156.408 365.16 156.935 365.076 157.43 364.908C157.934 364.74 158.396 364.455 158.816 364.054L159.404 364.838C158.937 365.249 158.391 365.561 157.766 365.776C157.141 365.981 156.487 366.084 155.806 366.084ZM159.404 364.838L158.41 364.712V361.1H159.404V364.838Z" fill="black"/>
<path d="M163.596 366V356.2H164.632V366H163.596ZM164.114 355.08C163.927 355.08 163.769 355.015 163.638 354.884C163.507 354.753 163.442 354.595 163.442 354.408C163.442 354.212 163.507 354.053 163.638 353.932C163.769 353.801 163.927 353.736 164.114 353.736C164.301 353.736 164.459 353.801 164.59 353.932C164.721 354.053 164.786 354.212 164.786 354.408C164.786 354.595 164.721 354.753 164.59 354.884C164.459 355.015 164.301 355.08 164.114 355.08Z" fill="black"/>
<path d="M171.214 366V362.36L171.452 363.004L167.294 356.2H168.4L172.054 362.178H171.466L175.12 356.2H176.156L171.998 363.004L172.236 362.36V366H171.214Z" fill="black"/>
<path d="M176.798 366L181.278 356.2H182.3L186.78 366H185.688L181.572 356.802H181.992L177.876 366H176.798ZM178.562 363.382L178.87 362.542H184.568L184.876 363.382H178.562Z" fill="black"/>
<path d="M194.585 366V356.2H195.621V366H194.585ZM195.103 355.08C194.917 355.08 194.758 355.015 194.627 354.884C194.497 354.753 194.431 354.595 194.431 354.408C194.431 354.212 194.497 354.053 194.627 353.932C194.758 353.801 194.917 353.736 195.103 353.736C195.29 353.736 195.449 353.801 195.579 353.932C195.71 354.053 195.775 354.212 195.775 354.408C195.775 354.595 195.71 354.753 195.579 354.884C195.449 355.015 195.29 355.08 195.103 355.08Z" fill="black"/>
<path d="M200.07 366V356.2H204.06C205.105 356.2 206.02 356.41 206.804 356.83C207.597 357.241 208.213 357.815 208.652 358.552C209.091 359.289 209.31 360.139 209.31 361.1C209.31 362.061 209.091 362.911 208.652 363.648C208.213 364.385 207.597 364.964 206.804 365.384C206.02 365.795 205.105 366 204.06 366H200.07ZM201.106 365.104H204.004C204.872 365.104 205.623 364.936 206.258 364.6C206.902 364.255 207.401 363.783 207.756 363.186C208.111 362.579 208.288 361.884 208.288 361.1C208.288 360.307 208.111 359.611 207.756 359.014C207.401 358.417 206.902 357.95 206.258 357.614C205.623 357.269 204.872 357.096 204.004 357.096H201.106V365.104Z" fill="black"/>
<path d="M211.192 366L215.672 356.2H216.694L221.174 366H220.082L215.966 356.802H216.386L212.27 366H211.192ZM212.956 363.382L213.264 362.542H218.962L219.27 363.382H212.956Z" fill="black"/>
<path d="M224.055 366V356.2H227.723C228.964 356.2 229.939 356.499 230.649 357.096C231.367 357.684 231.727 358.505 231.727 359.56C231.727 360.251 231.563 360.848 231.237 361.352C230.919 361.847 230.462 362.229 229.865 362.5C229.267 362.761 228.553 362.892 227.723 362.892H224.629L225.091 362.416V366H224.055ZM230.747 366L228.227 362.444H229.347L231.881 366H230.747ZM225.091 362.5L224.629 362.01H227.695C228.675 362.01 229.417 361.795 229.921 361.366C230.434 360.937 230.691 360.335 230.691 359.56C230.691 358.776 230.434 358.169 229.921 357.74C229.417 357.311 228.675 357.096 227.695 357.096H224.629L225.091 356.606V362.5Z" fill="black"/>
<path d="M239.562 366.084C238.843 366.084 238.176 365.963 237.56 365.72C236.953 365.468 236.426 365.118 235.978 364.67C235.53 364.213 235.18 363.681 234.928 363.074C234.685 362.458 234.564 361.786 234.564 361.058V360.75H243.65V361.632H235.236L235.586 361.1C235.586 361.697 235.684 362.248 235.88 362.752C236.076 363.247 236.347 363.676 236.692 364.04C237.047 364.404 237.467 364.689 237.952 364.894C238.437 365.09 238.974 365.188 239.562 365.188C240.122 365.188 240.64 365.09 241.116 364.894C241.601 364.698 242.021 364.418 242.376 364.054C242.74 363.69 243.02 363.261 243.216 362.766C243.412 362.271 243.51 361.735 243.51 361.156V361.058C243.51 360.479 243.407 359.947 243.202 359.462C242.997 358.977 242.707 358.552 242.334 358.188C241.97 357.824 241.541 357.544 241.046 357.348C240.551 357.143 240.019 357.04 239.45 357.04C239.058 357.04 238.675 357.082 238.302 357.166C237.929 357.241 237.574 357.362 237.238 357.53C236.911 357.698 236.603 357.913 236.314 358.174L235.698 357.46C236.006 357.171 236.351 356.928 236.734 356.732C237.126 356.527 237.551 356.373 238.008 356.27C238.475 356.167 238.955 356.116 239.45 356.116C240.187 356.116 240.864 356.242 241.48 356.494C242.105 356.737 242.647 357.082 243.104 357.53C243.561 357.978 243.916 358.505 244.168 359.112C244.42 359.719 244.546 360.377 244.546 361.086C244.546 361.795 244.42 362.453 244.168 363.06C243.916 363.667 243.561 364.199 243.104 364.656C242.656 365.104 242.129 365.454 241.522 365.706C240.915 365.958 240.262 366.084 239.562 366.084Z" fill="black"/>
<path d="M248.135 366V356.2H254.855V357.096H249.171V365.104H255.065V366H248.135ZM249.059 361.464V360.582H254.239V361.464H249.059Z" fill="black"/>
<path d="M260.665 366V357.096H257.221V356.2H265.145V357.096H261.701V366H260.665Z" fill="black"/>
<path d="M268.06 366V356.2H268.914L273.394 363.844H272.946L277.384 356.2H278.238V366H277.244V357.754H277.482L273.394 364.754H272.904L268.788 357.754H269.054V366H268.06Z" fill="black"/>
<path d="M286.821 366.084C286.102 366.084 285.435 365.963 284.819 365.72C284.212 365.468 283.685 365.118 283.237 364.67C282.789 364.213 282.439 363.681 282.187 363.074C281.944 362.458 281.823 361.786 281.823 361.058V360.75H290.909V361.632H282.495L282.845 361.1C282.845 361.697 282.943 362.248 283.139 362.752C283.335 363.247 283.605 363.676 283.951 364.04C284.305 364.404 284.725 364.689 285.211 364.894C285.696 365.09 286.233 365.188 286.821 365.188C287.381 365.188 287.899 365.09 288.375 364.894C288.86 364.698 289.28 364.418 289.635 364.054C289.999 363.69 290.279 363.261 290.475 362.766C290.671 362.271 290.769 361.735 290.769 361.156V361.058C290.769 360.479 290.666 359.947 290.461 359.462C290.255 358.977 289.966 358.552 289.593 358.188C289.229 357.824 288.799 357.544 288.305 357.348C287.81 357.143 287.278 357.04 286.709 357.04C286.317 357.04 285.934 357.082 285.561 357.166C285.187 357.241 284.833 357.362 284.497 357.53C284.17 357.698 283.862 357.913 283.573 358.174L282.957 357.46C283.265 357.171 283.61 356.928 283.993 356.732C284.385 356.527 284.809 356.373 285.267 356.27C285.733 356.167 286.214 356.116 286.709 356.116C287.446 356.116 288.123 356.242 288.739 356.494C289.364 356.737 289.905 357.082 290.363 357.53C290.82 357.978 291.175 358.505 291.427 359.112C291.679 359.719 291.805 360.377 291.805 361.086C291.805 361.795 291.679 362.453 291.427 363.06C291.175 363.667 290.82 364.199 290.363 364.656C289.915 365.104 289.387 365.454 288.781 365.706C288.174 365.958 287.521 366.084 286.821 366.084Z" fill="black"/>
<path d="M303.02 366.084C302.292 366.084 301.592 365.967 300.92 365.734C300.257 365.491 299.744 365.183 299.38 364.81L299.786 364.012C300.131 364.348 300.593 364.633 301.172 364.866C301.76 365.09 302.376 365.202 303.02 365.202C303.636 365.202 304.135 365.127 304.518 364.978C304.91 364.819 305.195 364.609 305.372 364.348C305.559 364.087 305.652 363.797 305.652 363.48C305.652 363.097 305.54 362.789 305.316 362.556C305.101 362.323 304.817 362.141 304.462 362.01C304.107 361.87 303.715 361.749 303.286 361.646C302.857 361.543 302.427 361.436 301.998 361.324C301.569 361.203 301.172 361.044 300.808 360.848C300.453 360.652 300.164 360.395 299.94 360.078C299.725 359.751 299.618 359.327 299.618 358.804C299.618 358.319 299.744 357.875 299.996 357.474C300.257 357.063 300.654 356.737 301.186 356.494C301.718 356.242 302.399 356.116 303.23 356.116C303.781 356.116 304.327 356.195 304.868 356.354C305.409 356.503 305.876 356.713 306.268 356.984L305.918 357.81C305.498 357.53 305.05 357.325 304.574 357.194C304.107 357.063 303.655 356.998 303.216 356.998C302.628 356.998 302.143 357.077 301.76 357.236C301.377 357.395 301.093 357.609 300.906 357.88C300.729 358.141 300.64 358.44 300.64 358.776C300.64 359.159 300.747 359.467 300.962 359.7C301.186 359.933 301.475 360.115 301.83 360.246C302.194 360.377 302.591 360.493 303.02 360.596C303.449 360.699 303.874 360.811 304.294 360.932C304.723 361.053 305.115 361.212 305.47 361.408C305.834 361.595 306.123 361.847 306.338 362.164C306.562 362.481 306.674 362.897 306.674 363.41C306.674 363.886 306.543 364.329 306.282 364.74C306.021 365.141 305.619 365.468 305.078 365.72C304.546 365.963 303.86 366.084 303.02 366.084Z" fill="black"/>
<path d="M310.191 366V356.2H311.227V366H310.191ZM310.709 355.08C310.523 355.08 310.364 355.015 310.233 354.884C310.103 354.753 310.037 354.595 310.037 354.408C310.037 354.212 310.103 354.053 310.233 353.932C310.364 353.801 310.523 353.736 310.709 353.736C310.896 353.736 311.055 353.801 311.185 353.932C311.316 354.053 311.381 354.212 311.381 354.408C311.381 354.595 311.316 354.753 311.185 354.884C311.055 355.015 310.896 355.08 310.709 355.08Z" fill="black"/>
<path d="M318.378 366.084C317.65 366.084 316.95 365.967 316.278 365.734C315.615 365.491 315.102 365.183 314.738 364.81L315.144 364.012C315.489 364.348 315.951 364.633 316.53 364.866C317.118 365.09 317.734 365.202 318.378 365.202C318.994 365.202 319.493 365.127 319.876 364.978C320.268 364.819 320.553 364.609 320.73 364.348C320.917 364.087 321.01 363.797 321.01 363.48C321.01 363.097 320.898 362.789 320.674 362.556C320.459 362.323 320.175 362.141 319.82 362.01C319.465 361.87 319.073 361.749 318.644 361.646C318.215 361.543 317.785 361.436 317.356 361.324C316.927 361.203 316.53 361.044 316.166 360.848C315.811 360.652 315.522 360.395 315.298 360.078C315.083 359.751 314.976 359.327 314.976 358.804C314.976 358.319 315.102 357.875 315.354 357.474C315.615 357.063 316.012 356.737 316.544 356.494C317.076 356.242 317.757 356.116 318.588 356.116C319.139 356.116 319.685 356.195 320.226 356.354C320.767 356.503 321.234 356.713 321.626 356.984L321.276 357.81C320.856 357.53 320.408 357.325 319.932 357.194C319.465 357.063 319.013 356.998 318.574 356.998C317.986 356.998 317.501 357.077 317.118 357.236C316.735 357.395 316.451 357.609 316.264 357.88C316.087 358.141 315.998 358.44 315.998 358.776C315.998 359.159 316.105 359.467 316.32 359.7C316.544 359.933 316.833 360.115 317.188 360.246C317.552 360.377 317.949 360.493 318.378 360.596C318.807 360.699 319.232 360.811 319.652 360.932C320.081 361.053 320.473 361.212 320.828 361.408C321.192 361.595 321.481 361.847 321.696 362.164C321.92 362.481 322.032 362.897 322.032 363.41C322.032 363.886 321.901 364.329 321.64 364.74C321.379 365.141 320.977 365.468 320.436 365.72C319.904 365.963 319.218 366.084 318.378 366.084Z" fill="black"/>
<path d="M327.317 366V357.096H323.873V356.2H331.797V357.096H328.353V366H327.317Z" fill="black"/>
<path d="M334.712 366V356.2H341.432V357.096H335.748V365.104H341.642V366H334.712ZM335.636 361.464V360.582H340.816V361.464H335.636Z" fill="black"/>
<path d="M345.337 366V356.2H346.191L350.671 363.844H350.223L354.661 356.2H355.515V366H354.521V357.754H354.759L350.671 364.754H350.181L346.065 357.754H346.331V366H345.337Z" fill="black"/>
<path d="M359.968 366V356.2H361.004V366H359.968ZM360.486 355.08C360.299 355.08 360.141 355.015 360.01 354.884C359.879 354.753 359.814 354.595 359.814 354.408C359.814 354.212 359.879 354.053 360.01 353.932C360.141 353.801 360.299 353.736 360.486 353.736C360.673 353.736 360.831 353.801 360.962 353.932C361.093 354.053 361.158 354.212 361.158 354.408C361.158 354.595 361.093 354.753 360.962 354.884C360.831 355.015 360.673 355.08 360.486 355.08Z" fill="black"/>
<defs>
<linearGradient id="paint0_linear_1_99" x1="247.104" y1="4.43739" x2="247.104" y2="115" gradientUnits="userSpaceOnUse">
<stop stop-color="#072A7D"/>
<stop offset="1" stop-color="#072161"/>
</linearGradient>
<linearGradient id="paint1_linear_1_99" x1="247.104" y1="4.43739" x2="247.104" y2="115" gradientUnits="userSpaceOnUse">
<stop offset="0.351925" stop-color="#299AE4"/>
<stop offset="0.581731" stop-color="#07256A"/>
<stop offset="0.730769" stop-color="#07256A"/>
</linearGradient>
<linearGradient id="paint2_linear_1_99" x1="247.104" y1="4.43739" x2="247.104" y2="115" gradientUnits="userSpaceOnUse">
<stop stop-color="#44B0E7"/>
<stop offset="1" stop-color="#0E71D4"/>
</linearGradient>
<linearGradient id="paint3_linear_1_99" x1="247.104" y1="4.43739" x2="247.104" y2="115" gradientUnits="userSpaceOnUse">
<stop stop-color="#11ACEA"/>
<stop offset="1" stop-color="#0688EB"/>
</linearGradient>
</defs>
</svg>
